<svg xmlns="http://www.w3.org/2000/svg" viewBox="0 0 51.7 45"> <g stroke="none" fill="#797885" stroke-width="1px"><path d="M50.9 23.8L28 .8c-.6-.5-1.3-.8-2.1-.8s-1.5.3-2.1.8L.9 23.8c-1.1 1.1-1.1 3 0 4.1.5.5 1.3.8 2.1.8s1.5-.3 2.1-.8l1.8-1.8v13.5c0 3 2.4 5.4 5.4 5.4h27.4c3 0 5.4-2.4 5.4-5.4V26l1.8 1.8c.5.5 1.3.8 2.1.8s1.5-.3 2.1-.8c.9-1 .9-2.9-.2-4zm-38.7 19c-1.8 0-3.2-1.4-3.2-3.2v-1.7h11.5v4.9h-8.3zm18.1 0h-8.8V29.1c0-.8.6-1.4 1.4-1.4h6c.8 0 1.4.6 1.4 1.4v13.7zm-1.4-16.2h-6c-1.4 0-2.5 1.1-2.5 2.5v8H8.9V23.9l17-17 16.9 16.9v13.3H31.3v-8c0-1.3-1.1-2.5-2.4-2.5zm10.7 16.2h-8.2v-4.9h11.5v1.7c-.1 1.8-1.5 3.2-3.3 3.2zm9.7-16.5c-.3.3-.8.3-1 0L25.9 3.9 3.4 26.3c-.3.3-.8.3-1 0-.3-.3-.3-.8 0-1L25.3 2.4c.1-.1.3-.2.5-.2s.4.1.5.2l22.9 22.9c.4.3.4.8.1 1z" stroke="none" fill="#797885" stroke-width="1px"></path></g> </svg>