<svg xmlns="http://www.w3.org/2000/svg" viewBox="0 0 59.9 45"> <g stroke="none" fill="#797885" stroke-width="1px"><path d="M59.2 19.8L40.2.7c-.4-.4-1-.7-1.7-.7-.6 0-1.2.2-1.7.7L30 7.5 23.2.7c-.4-.4-1-.7-1.7-.7-.6 0-1.3.2-1.7.7L.8 19.8c-.9.9-.9 2.5 0 3.4.4.4 1 .7 1.7.7.6 0 1.2-.2 1.7-.7l1.5-1.5v18.9c0 2.5 2 4.5 4.5 4.5h39.7c2.5 0 4.5-2 4.5-4.5v-19l1.5 1.5c.4.4 1 .7 1.7.7.6 0 1.2-.2 1.7-.7.9-.9.9-2.4-.1-3.3zM7.4 40.5V19.9L21.5 5.8l8 8v29.4h-6.3V31.9c0-1.1-.9-2.1-2.1-2.1h-5c-1.1 0-2.1.9-2.1 2.1v11.3h-4c-1.4 0-2.6-1.2-2.6-2.7zm7.6 2.7V31.9c0-.7.5-1.2 1.2-1.2h5c.7 0 1.2.5 1.2 1.2v11.3H15zm22.9 0V31.9c0-.7.5-1.2 1.2-1.2h5c.7 0 1.2.5 1.2 1.2v11.3h-7.4zm14.6-2.7c0 1.5-1.2 2.7-2.7 2.7h-3.7V31.9c0-1.1-.9-2.1-2.1-2.1h-5c-1.1 0-2.1.9-2.1 2.1v11.3h-6.6V13.8l8.1-8.1 14.1 14.1v20.7zm5.4-18.6c-.2.2-.6.2-.8 0L38.5 3.2 30 11.7l-8.5-8.5L2.8 21.9c-.2.2-.6.2-.8 0-.2-.2-.2-.6 0-.8L21 2c.1-.1.3-.2.4-.2.1 0 .3.1.4.2l8.1 8.1L38 2c.1-.1.3-.2.4-.2.1 0 .3.1.4.2l19 19c.4.3.4.6.1.9z" stroke="none" fill="#797885" stroke-width="1px"></path></g> </svg>