<svg xmlns="http://www.w3.org/2000/svg" width="14.843" height="16.964" viewBox="0 0 14.843 16.964">
  <path id="FontAwsome_trash-alt_" data-name="FontAwsome (trash-alt)" d="M8.88,13.783h.8a.4.4,0,0,0,.4-.4V6.229a.4.4,0,0,0-.4-.4h-.8a.4.4,0,0,0-.4.4v7.157A.4.4,0,0,0,8.88,13.783ZM14.313,2.651h-2.73L10.456.772A1.59,1.59,0,0,0,9.092,0H5.751A1.59,1.59,0,0,0,4.388.772L3.261,2.651H.53a.53.53,0,0,0-.53.53v.53a.53.53,0,0,0,.53.53h.53V15.374a1.59,1.59,0,0,0,1.59,1.59h9.542a1.59,1.59,0,0,0,1.59-1.59V4.241h.53a.53.53,0,0,0,.53-.53v-.53A.53.53,0,0,0,14.313,2.651Zm-8.62-.964a.2.2,0,0,1,.171-.1H8.979a.2.2,0,0,1,.171.1l.578.964H5.115Zm6.5,13.687H2.651V4.241h9.542Zm-7.024-1.59h.8a.4.4,0,0,0,.4-.4V6.229a.4.4,0,0,0-.4-.4h-.8a.4.4,0,0,0-.4.4v7.157A.4.4,0,0,0,5.169,13.783Z"/>
</svg>
